<svg width="295" height="296" viewBox="0 0 295 296" fill="none" xmlns="http://www.w3.org/2000/svg">
<path d="M221.25 24.667H73.75C53.3458 24.667 36.875 41.0703 36.875 61.297V195.854C36.875 216.08 53.3458 232.484 73.75 232.484H83.0917C92.925 232.484 102.267 236.307 109.15 243.214L130.169 264.057C139.756 273.554 155.367 273.554 164.954 264.057L185.973 243.214C192.856 236.307 202.321 232.484 212.031 232.484H221.25C241.654 232.484 258.125 216.08 258.125 195.854V61.297C258.125 41.0703 241.654 24.667 221.25 24.667ZM127.588 160.457C132.627 160.457 136.806 164.65 136.806 169.707C136.806 174.764 132.627 178.957 127.588 178.957H94.6458C89.2375 178.957 84.1979 176.367 81.0021 171.927C77.9292 167.734 77.1917 162.554 78.6667 157.62C82.9688 144.424 93.5396 137.27 102.881 130.857C112.715 124.197 118.246 120.004 118.246 112.85C118.246 106.437 113.083 101.257 106.692 101.257C100.3 101.257 95.2604 106.56 95.2604 112.974C95.2604 118.03 91.0813 122.224 86.0417 122.224C81.0021 122.224 76.8229 118.03 76.8229 112.974C76.8229 96.447 90.2208 82.8803 106.815 82.8803C123.408 82.8803 136.806 96.3237 136.806 112.974C136.806 130.364 123.777 139.244 113.329 146.397C106.815 150.837 100.669 155.03 97.5958 160.58H127.588V160.457ZM208.958 161.32H206.377V169.83C206.377 174.887 202.198 179.08 197.158 179.08C192.119 179.08 187.94 174.887 187.94 169.83V161.32H163.848C163.848 161.32 163.848 161.32 163.725 161.32C157.702 161.32 152.171 158.114 149.098 152.934C146.025 147.63 146.025 141.094 149.098 135.914C157.456 121.484 167.167 105.08 176.017 90.7737C179.95 84.4837 187.448 81.647 194.454 83.6203C201.46 85.717 206.377 92.1303 206.254 99.5303V142.944H208.958C213.998 142.944 218.177 147.137 218.177 152.194C218.177 157.25 213.998 161.32 208.958 161.32Z" fill="#774936"/>
<path d="M187.94 142.82V106.56C180.688 118.4 173.19 131.103 166.429 142.696H187.94V142.82Z" fill="#292D32"/>
</svg>
