<svg width="295" height="296" viewBox="0 0 295 296" fill="none" xmlns="http://www.w3.org/2000/svg">
<path d="M295 115.111V279.556C295 283.917 293.446 288.1 290.68 291.184C287.914 294.267 284.162 296 280.25 296H14.75C10.8381 296 7.08634 294.267 4.32017 291.184C1.55401 288.1 0 283.917 0 279.556V115.111H295ZM295 82.2222H0V16.4444C0 12.0831 1.55401 7.9004 4.32017 4.81647C7.08634 1.73253 10.8381 0 14.75 0H280.25C284.162 0 287.914 1.73253 290.68 4.81647C293.446 7.9004 295 12.0831 295 16.4444V82.2222ZM191.75 213.778V246.667H250.75V213.778H191.75Z" fill="#774936"/>
</svg>
