<svg width="295" height="296" viewBox="0 0 295 296" fill="none" xmlns="http://www.w3.org/2000/svg">
<path d="M45.7764 64.8906L0 19.7166L19.9734 0L65.7357 45.188H280.884C283.084 45.1878 285.253 45.6954 287.22 46.6701C289.186 47.6448 290.894 49.0597 292.207 50.8019C293.521 52.5441 294.404 54.5653 294.786 56.7042C295.168 58.8431 295.038 61.0405 294.406 63.121L260.529 174.593C259.658 177.465 257.871 179.982 255.435 181.772C252.999 183.562 250.043 184.528 247.006 184.528H74.0074V212.396H229.277V240.264H59.8919C56.1483 240.264 52.5579 238.796 49.9108 236.183C47.2636 233.57 45.7764 230.025 45.7764 226.33V64.8906ZM66.9496 296C61.3342 296 55.9487 293.798 51.9779 289.878C48.0072 285.959 45.7764 280.642 45.7764 275.099C45.7764 269.556 48.0072 264.239 51.9779 260.32C55.9487 256.4 61.3342 254.198 66.9496 254.198C72.5651 254.198 77.9506 256.4 81.9213 260.32C85.8921 264.239 88.1228 269.556 88.1228 275.099C88.1228 280.642 85.8921 285.959 81.9213 289.878C77.9506 293.798 72.5651 296 66.9496 296ZM236.335 296C230.72 296 225.334 293.798 221.363 289.878C217.393 285.959 215.162 280.642 215.162 275.099C215.162 269.556 217.393 264.239 221.363 260.32C225.334 256.4 230.72 254.198 236.335 254.198C241.951 254.198 247.336 256.4 251.307 260.32C255.278 264.239 257.508 269.556 257.508 275.099C257.508 280.642 255.278 285.959 251.307 289.878C247.336 293.798 241.951 296 236.335 296Z" fill="#774936"/>
</svg>
