<svg width="295" height="296" viewBox="0 0 295 296" fill="none" xmlns="http://www.w3.org/2000/svg">
<path d="M264.271 191.167C267.712 191.167 270.417 193.88 270.417 197.334V209.667C270.417 230.14 253.946 246.667 233.542 246.667C233.542 226.317 216.948 209.667 196.667 209.667C176.385 209.667 159.792 226.317 159.792 246.667H135.208C135.208 226.317 118.615 209.667 98.3333 209.667C78.0521 209.667 61.4583 226.317 61.4583 246.667C41.0541 246.667 24.5833 230.14 24.5833 209.667V185C24.5833 178.217 30.1146 172.667 36.875 172.667H153.646C170.608 172.667 184.375 158.854 184.375 141.834V74.0003C184.375 67.217 189.906 61.667 196.667 61.667H206.992C215.842 61.667 223.954 66.477 228.379 74.1237L236.246 87.937C237.352 89.9103 235.877 92.5003 233.542 92.5003C216.579 92.5003 202.812 106.314 202.812 123.334V160.334C202.812 177.354 216.579 191.167 233.542 191.167H264.271Z" fill="#774936"/>
<path d="M98.3333 271.333C111.91 271.333 122.917 260.29 122.917 246.667C122.917 233.044 111.91 222 98.3333 222C84.7563 222 73.75 233.044 73.75 246.667C73.75 260.29 84.7563 271.333 98.3333 271.333Z" fill="#774936"/>
<path d="M196.667 271.333C210.244 271.333 221.25 260.29 221.25 246.667C221.25 233.044 210.244 222 196.667 222C183.09 222 172.083 233.044 172.083 246.667C172.083 260.29 183.09 271.333 196.667 271.333Z" fill="#774936"/>
<path d="M270.417 154.537V172.667H233.542C226.781 172.667 221.25 167.117 221.25 160.333V123.333C221.25 116.55 226.781 111 233.542 111H249.398L267.221 142.327C269.31 146.027 270.417 150.22 270.417 154.537Z" fill="#774936"/>
<path d="M160.775 24.667H69.9396C47.9375 24.667 29.5 40.4537 25.4438 61.4203H79.1584C83.8292 61.4203 87.5167 65.2437 87.5167 69.9303C87.5167 74.617 83.8292 78.317 79.1584 78.317H24.5834V95.337H56.5417C61.2125 95.337 65.023 99.1603 65.023 103.847C65.023 108.534 61.2125 112.234 56.5417 112.234H24.5834V129.254H34.048C38.7188 129.254 42.5292 133.077 42.5292 137.764C42.5292 142.45 38.7188 146.15 34.048 146.15H24.5834V148.987C24.5834 155.77 30.1146 161.32 36.875 161.32H149.344C161.881 161.32 172.083 151.084 172.083 138.504V36.0137C172.083 29.7237 167.044 24.667 160.775 24.667Z" fill="#774936"/>
<path d="M25.4438 61.4199H23.6H11.5542C6.88335 61.4199 3.07294 65.2433 3.07294 69.9299C3.07294 74.6166 6.88335 78.3166 11.5542 78.3166H22.7396H24.5834V70.1766C24.5834 67.2166 24.9521 64.2566 25.4438 61.4199Z" fill="#774936"/>
<path d="M22.7396 95.3369H11.5542C6.88335 95.3369 3.07294 99.1602 3.07294 103.847C3.07294 108.534 6.88335 112.234 11.5542 112.234H22.7396H24.5834V95.3369H22.7396Z" fill="#774936"/>
<path d="M22.7396 129.254H11.5542C6.88335 129.254 3.07294 133.077 3.07294 137.764C3.07294 142.451 6.88335 146.151 11.5542 146.151H22.7396H24.5834V129.254H22.7396Z" fill="#774936"/>
</svg>
